HIERARCHY
ROOT joint_Root
{
	OFFSET 0.0 0.0 0.0
	CHANNELS 6 Xposition Yposition Zposition Zrotation Xrotation Yrotation 
	JOINT Hips
	{
		OFFSET 4.5925 91.4895 -427.239
		CHANNELS 6 Xposition Yposition Zposition Zrotation Xrotation Yrotation 
		JOINT Spine
		{
			OFFSET 15.7357 0.0 0.0
			CHANNELS 6 Xposition Yposition Zposition Zrotation Xrotation Yrotation 
			JOINT Chest
			{
				OFFSET 8.98455 -0.406207 0.0
				CHANNELS 6 Xposition Yposition Zposition Zrotation Xrotation Yrotation 
				JOINT Neck
				{
					OFFSET 16.3773 0.0 0.0
					CHANNELS 6 Xposition Yposition Zposition Zrotation Xrotation Yrotation 
					JOINT Head
					{
						OFFSET 6.45672 0.0 0.0
						CHANNELS 6 Xposition Yposition Zposition Zrotation Xrotation Yrotation 
						End Site
						{
							OFFSET 0.0 0.0 0.0
						}
					}
				}
				JOINT Shoulder_L
				{
					OFFSET 12.9942 -0.242716 4.98039
					CHANNELS 6 Xposition Yposition Zposition Zrotation Xrotation Yrotation 
					JOINT UpperArm_L
					{
						OFFSET 5.34809 0.0 0.0
						CHANNELS 6 Xposition Yposition Zposition Zrotation Xrotation Yrotation 
						JOINT LowerArm_L
						{
							OFFSET 24.3286 1.87007e-05 0.0
							CHANNELS 6 Xposition Yposition Zposition Zrotation Xrotation Yrotation 
							JOINT Hand_L
							{
								OFFSET 22.2916 0.0 0.0
								CHANNELS 6 Xposition Yposition Zposition Zrotation Xrotation Yrotation 
								End Site
								{
									OFFSET 0.0 0.0 0.0
								}
							}
						}
					}
				}
				JOINT Shoulder_R
				{
					OFFSET 12.9945 -0.242716 -4.98039
					CHANNELS 6 Xposition Yposition Zposition Zrotation Xrotation Yrotation 
					JOINT UpperArm_R
					{
						OFFSET -5.34813 0.0 0.0
						CHANNELS 6 Xposition Yposition Zposition Zrotation Xrotation Yrotation 
						JOINT LowerArm_R
						{
							OFFSET -24.3289 0.000322201 0.0
							CHANNELS 6 Xposition Yposition Zposition Zrotation Xrotation Yrotation 
							JOINT Hand_R
							{
								OFFSET -22.2915 -0.000108084 0.0
								CHANNELS 6 Xposition Yposition Zposition Zrotation Xrotation Yrotation 
								End Site
								{
									OFFSET 0.0 0.0 0.0
								}
							}
						}
					}
				}
			}
		}
		JOINT UpperLeg_L
		{
			OFFSET -2.19248 -6.46944 0.0
			CHANNELS 6 Xposition Yposition Zposition Zrotation Xrotation Yrotation 
			JOINT LowerLeg_L
			{
				OFFSET 39.0811 0.0 -1.23785e-05
				CHANNELS 6 Xposition Yposition Zposition Zrotation Xrotation Yrotation 
				JOINT Foot_L
				{
					OFFSET 40.9854 0.0 -1.26872e-05
					CHANNELS 6 Xposition Yposition Zposition Zrotation Xrotation Yrotation 
					JOINT Toes_L
					{
						OFFSET 11.7543 0.0 0.0
						CHANNELS 6 Xposition Yposition Zposition Zrotation Xrotation Yrotation 
						End Site
						{
							OFFSET 0.0 0.0 0.0
						}
					}
				}
			}
		}
		JOINT UpperLeg_R
		{
			OFFSET -2.19251 6.46944 0.0
			CHANNELS 6 Xposition Yposition Zposition Zrotation Xrotation Yrotation 
			JOINT LowerLeg_R
			{
				OFFSET -39.0811 -0.00228153 -0.0401928
				CHANNELS 6 Xposition Yposition Zposition Zrotation Xrotation Yrotation 
				JOINT Foot_R
				{
					OFFSET -40.9854 0.0 0.0
					CHANNELS 6 Xposition Yposition Zposition Zrotation Xrotation Yrotation 
					JOINT Toes_R
					{
						OFFSET -11.7543 0.0 0.0
						CHANNELS 6 Xposition Yposition Zposition Zrotation Xrotation Yrotation 
						End Site
						{
							OFFSET 0.0 0.0 0.0
						}
					}
				}
			}
		}
	}
}
MOTION
Frames:	5
Frame Time:	0.0333333
0.000000 0.000000 0.000000 0.000000 0.000000 -0.000000 111.888000 91.003100 168.093000 -73.399600 19.582600 166.517000 15.735700 0.000005 -0.000001 43.967300 80.851500 -40.624900 8.984550 -0.406207 -0.000000 5.447910 -13.208800 7.331830 16.377300 -0.000001 -0.000001 3.778610 1.123210 -0.520072 6.456720 -0.000001 -0.000000 0.940645 10.086900 -4.341740 12.994200 -0.242716 4.980390 -86.943600 -9.223860 -71.576800 5.348090 -0.000007 -0.000001 -41.012300 35.995700 -67.227200 24.328600 0.000019 0.000005 7.841270 -3.683620 -115.010000 22.291600 -0.000001 0.000005 2.385800 5.466250 -5.231050 12.994500 -0.242716 -4.980390 92.286600 -6.132410 -69.504700 -5.348130 -0.000001 -0.000004 -67.186100 39.909700 35.983100 -24.328900 0.000322 -0.000009 -10.191000 -1.046180 -84.198400 -22.291500 -0.000108 -0.000004 11.395400 5.626350 -13.067400 -2.192480 -6.469440 -0.000000 -176.036000 -13.547100 1.565480 39.081100 -0.000007 -0.000012 -0.009843 0.033584 16.334300 40.985400 -0.000006 -0.000013 19.616300 9.162900 -68.330200 11.754300 -0.000000 0.000003 -0.027637 -0.206436 -25.028600 -2.192510 6.469440 -0.000001 -176.229000 -1.781630 140.104000 -39.081100 -0.002282 -0.040193 -0.029015 0.021743 56.002100 -40.985400 0.000008 0.000006 7.660020 -13.474800 -58.073100 -11.754300 -0.000006 -0.000006 -0.018978 -0.161559 -23.171900
0.000000 0.000000 0.000000 0.000000 0.000000 -0.000000 114.324000 90.634100 165.157000 -75.457700 16.603600 167.776000 15.735700 0.000005 -0.000001 43.717000 80.630000 -40.755400 8.984550 -0.406207 -0.000000 5.670280 -13.568100 6.613190 16.377300 -0.000001 -0.000001 3.673170 0.551804 0.626685 6.456720 -0.000001 -0.000000 0.444533 9.222730 -2.431480 12.994200 -0.242716 4.980390 -86.499700 -10.450200 -71.364000 5.348090 -0.000007 -0.000001 -41.344000 35.839600 -69.153800 24.328600 0.000019 0.000005 7.953500 -3.619730 -114.318000 22.291600 -0.000001 0.000005 3.491090 5.453270 -4.756870 12.994500 -0.242716 -4.980390 92.594100 -7.085240 -69.830700 -5.348130 -0.000001 -0.000004 -70.076900 38.883300 37.513500 -24.328900 0.000322 -0.000009 -8.486500 -0.575486 -86.147300 -22.291500 -0.000108 -0.000004 11.519100 5.610130 -11.967400 -2.192480 -6.469440 -0.000000 -175.370000 -13.022700 3.084120 39.081100 -0.000007 -0.000012 0.003185 -0.009643 18.280600 40.985400 -0.000006 -0.000013 18.877700 11.824400 -68.391400 11.754300 -0.000000 0.000003 -0.041955 -0.267824 -27.584300 -2.192510 6.469440 -0.000001 -177.571000 -0.734643 140.771000 -39.081100 -0.002282 -0.040193 0.021248 -0.019191 43.130700 -40.985400 0.000008 0.000006 4.983470 -6.772400 -60.377600 -11.754300 -0.000006 -0.000006 -0.021253 -0.174133 -23.689900
0.000000 0.000000 0.000000 0.000000 0.000000 -0.000000 116.749000 89.496900 161.883000 -77.565500 14.078900 169.616000 15.735700 0.000005 -0.000001 45.714900 80.287600 -43.140700 8.984550 -0.406207 -0.000000 6.593900 -13.549800 5.945720 16.377300 -0.000001 -0.000001 2.965830 0.265311 1.363140 6.456720 -0.000001 -0.000000 -0.210090 8.435100 -1.100580 12.994200 -0.242716 4.980390 -86.583100 -10.315900 -71.560700 5.348090 -0.000007 -0.000001 -42.469000 36.162100 -68.460900 24.328600 0.000019 0.000005 7.914840 -3.461540 -113.476000 22.291600 -0.000001 0.000005 3.622050 5.447610 -4.554440 12.994500 -0.242716 -4.980390 92.248200 -6.432170 -70.687900 -5.348130 -0.000001 -0.000004 -71.207700 37.939600 36.981300 -24.328900 0.000322 -0.000009 -6.145680 -0.199952 -88.141200 -22.291500 -0.000108 -0.000004 11.508200 5.597410 -11.188600 -2.192480 -6.469440 -0.000000 -175.329000 -9.845140 5.102290 39.081100 -0.000007 -0.000012 0.022427 -0.057490 21.311100 40.985400 -0.000006 -0.000013 18.160900 11.989900 -69.365100 11.754300 -0.000000 0.000003 -0.063418 -0.342740 -30.744100 -2.192510 6.469440 -0.000001 -177.485000 4.067640 142.161000 -39.081100 -0.002282 -0.040193 -0.017630 0.033969 31.637900 -40.985400 0.000008 0.000006 -2.391180 3.792770 -60.899300 -11.754300 -0.000006 -0.000006 -0.022999 -0.183366 -24.070900
0.000000 0.000000 0.000000 0.000000 0.000000 -0.000000 119.396000 87.887100 158.091000 -78.848200 12.266500 170.923000 15.735700 0.000005 -0.000001 49.252700 80.167700 -46.722100 8.984550 -0.406207 -0.000000 7.564620 -12.792600 5.921750 16.377300 -0.000001 -0.000001 2.109360 0.353190 2.077110 6.456720 -0.000001 -0.000000 -1.047360 8.519680 -1.194650 12.994200 -0.242716 4.980390 -87.360300 -8.297940 -72.283500 5.348090 -0.000007 -0.000001 -44.168100 37.345800 -64.696400 24.328600 0.000019 0.000005 7.350450 -2.943170 -111.705000 22.291600 -0.000001 0.000005 3.775520 5.455310 -4.830320 12.994500 -0.242716 -4.980390 91.301500 -4.033800 -72.102300 -5.348130 -0.000001 -0.000004 -70.223200 36.738000 34.013600 -24.328900 0.000322 -0.000009 -5.285260 -0.096256 -88.956200 -22.291500 -0.000108 -0.000004 11.954600 5.587820 -10.640000 -2.192480 -6.469440 -0.000000 -174.714000 -7.073990 7.362410 39.081100 -0.000007 -0.000012 0.039319 -0.086355 24.480500 40.985400 -0.000006 -0.000013 17.345400 12.118100 -70.960900 11.754300 -0.000000 0.000003 -0.099790 -0.444048 -35.109100 -2.192510 6.469440 -0.000001 -174.836000 10.221000 141.889000 -39.081100 -0.002282 -0.040193 -0.069584 0.143708 26.895300 -40.985400 0.000008 0.000006 -8.608110 9.580210 -60.849600 -11.754300 -0.000006 -0.000006 -0.025072 -0.193919 -24.506900
0.000000 0.000000 0.000000 0.000000 0.000000 -0.000000 122.321000 86.233500 153.648000 -79.661800 11.146500 171.137000 15.735700 0.000005 -0.000001 52.798800 80.742900 -50.086600 8.984550 -0.406207 -0.000000 7.358800 -11.163800 6.152500 16.377300 -0.000001 -0.000001 1.661280 1.018700 2.921800 6.456720 -0.000001 -0.000000 -1.030340 9.706590 -2.467040 12.994200 -0.242716 4.980390 -88.701100 -4.412060 -73.579300 5.348090 -0.000007 -0.000001 -47.691600 39.811100 -56.253900 24.328600 0.000019 0.000005 6.654790 -2.078390 -107.267000 22.291600 -0.000001 0.000005 4.541630 5.478390 -5.685760 12.994500 -0.242716 -4.980390 89.760700 0.828231 -73.864700 -5.348130 -0.000001 -0.000004 -66.388300 35.206300 29.243500 -24.328900 0.000322 -0.000009 -6.524570 -0.270317 -87.635600 -22.291500 -0.000108 -0.000004 13.153100 5.596560 -11.137000 -2.192480 -6.469440 -0.000000 -173.581000 -6.023440 8.666380 39.081100 -0.000007 -0.000012 0.049094 -0.091598 28.190000 40.985400 -0.000006 -0.000013 16.295400 12.931500 -70.881200 11.754300 -0.000000 0.000003 -0.173014 -0.598288 -42.035500 -2.192510 6.469440 -0.000001 -170.380000 15.217300 138.676000 -39.081100 -0.002282 -0.040193 -0.020576 0.038174 32.021800 -40.985400 0.000008 0.000006 -4.771500 6.297220 -62.938500 -11.754300 -0.000006 -0.000006 -0.027938 -0.207853 -25.083500
